<svg xmlns="http://www.w3.org/2000/svg" width="100" height="100" fill="none"><path fill="#6D4AFF" d="M18.247 69.167V90h14.67V70.069a7.3 7.3 0 0 1 2.149-5.17 7.346 7.346 0 0 1 5.187-2.142h15.042c7.013 0 13.74-2.78 18.709-7.728a26.338 26.338 0 0 0 7.75-18.65 26.335 26.335 0 0 0-7.751-18.651A26.51 26.51 0 0 0 55.292 10H18.247v26.041h14.67V23.764h21.386c3.318-.001 6.501 1.313 8.853 3.654a12.46 12.46 0 0 1 3.669 8.823 12.458 12.458 0 0 1-3.668 8.826 12.544 12.544 0 0 1-8.855 3.656H38.756a20.558 20.558 0 0 0-7.85 1.553 20.504 20.504 0 0 0-6.656 4.432 20.428 20.428 0 0 0-4.445 6.634 20.374 20.374 0 0 0-1.558 7.825Z"/></svg>