<svg xmlns="http://www.w3.org/2000/svg" width="100" height="100" fill="none"><path fill="#fff" d="M35 35h30v30H35z"/><rect width="80" height="80" x="10" y="10" fill="#01B72F" rx="20"/><rect width="80" height="80" x="10" y="10" fill="url(#a)" fill-opacity=".2" rx="20"/><path fill="#fff" d="M52.28 77.5c-5.95 0-11.188-1.192-15.715-3.575-4.462-2.382-7.922-5.625-10.38-9.727C23.728 60.025 22.5 55.295 22.5 50c0-5.36 1.198-10.093 3.59-14.197a25.94 25.94 0 0 1 9.99-9.728c4.203-2.383 8.958-3.575 14.26-3.575 5.107 0 9.7 1.125 13.775 3.375 4.138 2.185 7.403 5.363 9.795 9.53C76.302 39.51 77.5 44.44 77.5 50.2c0 .597-.032 1.292-.097 2.085-.066.728-.128 1.425-.193 2.085H34.82v-9.032h34.435l-5.82 2.68c0-2.78-.55-5.196-1.65-7.25a11.85 11.85 0 0 0-4.557-4.763c-1.94-1.193-4.206-1.788-6.79-1.788-2.588 0-4.883.596-6.888 1.788-1.94 1.125-3.46 2.745-4.56 4.865-1.1 2.05-1.65 4.5-1.65 7.345v2.382c0 2.913.615 5.495 1.845 7.745a13.253 13.253 0 0 0 5.335 5.063c2.327 1.125 5.042 1.688 8.147 1.688 2.78 0 5.206-.43 7.276-1.29a17.667 17.667 0 0 0 5.82-3.873l8.05 8.935c-2.393 2.78-5.4 4.93-9.02 6.453C61.173 76.774 57 77.5 52.28 77.5Z"/><defs><radialGradient id="a" cx="0" cy="0" r="1" gradientTransform="matrix(0 40 -40 0 50 50)" gradientUnits="userSpaceOnUse"><stop stop-color="#86FF6D"/><stop offset="1" stop-color="#58BF43"/></radialGradient></defs></svg>