<svg xmlns="http://www.w3.org/2000/svg" width="100" height="100" fill="none"><path fill="#E42D7E" d="M46.628 45.565a34.157 34.157 0 0 1-14.88-8.485 34.178 34.178 0 0 1-14.956 8.505c-.286 1.5-.43 3.023-.429 4.55a24.202 24.202 0 0 0 15.05 22.304 24.1 24.1 0 0 0 15.215-26.874Zm-16.01 17.803h-.004l-9.174-9.174 2.821-2.828 6.359 6.359 9.944-9.947 2.824 2.821-12.77 12.77Zm16.01-17.803a34.157 34.157 0 0 1-14.88-8.485 34.178 34.178 0 0 1-14.956 8.505c-.286 1.5-.43 3.023-.429 4.55a24.202 24.202 0 0 0 15.05 22.304 24.1 24.1 0 0 0 15.215-26.874Zm-16.01 17.803h-.004l-9.174-9.174 2.821-2.828 6.359 6.359 9.944-9.947 2.824 2.821-12.77 12.77Zm1.129-26.288a34.178 34.178 0 0 1-14.955 8.505c-.287 1.5-.43 3.023-.43 4.55a24.2 24.2 0 0 0 15.051 22.304 24.101 24.101 0 0 0 15.214-26.874 34.158 34.158 0 0 1-14.88-8.485Zm-1.128 26.288h-.005l-9.174-9.174 2.821-2.828 6.359 6.359 9.944-9.947 2.824 2.821-12.77 12.77Zm16.009-17.803a34.157 34.157 0 0 1-14.88-8.485 34.178 34.178 0 0 1-14.956 8.505c-.286 1.5-.43 3.023-.429 4.55a24.202 24.202 0 0 0 15.05 22.304 24.1 24.1 0 0 0 15.215-26.874Zm-16.01 17.803h-.004l-9.174-9.174 2.821-2.828 6.359 6.359 9.944-9.947 2.824 2.821-12.77 12.77Zm16.01-17.803a34.157 34.157 0 0 1-14.88-8.485 34.178 34.178 0 0 1-14.956 8.505c-.286 1.5-.43 3.023-.429 4.55a24.202 24.202 0 0 0 15.05 22.304 24.1 24.1 0 0 0 15.215-26.874Zm-16.01 17.803h-.004l-9.174-9.174 2.821-2.828 6.359 6.359 9.944-9.947 2.824 2.821-12.77 12.77Z"/><path fill="#E42D7E" d="M89.095 23.4a6.34 6.34 0 0 0-1.265-1.473 6.116 6.116 0 0 0-3.643-1.48H37.54a6.115 6.115 0 0 0-3.643 1.48c-.118.095-.23.2-.334.311a5.986 5.986 0 0 0-.924 1.153 6.17 6.17 0 0 0-.915 3.241v2.433l-.773.797-.133.141a39.912 39.912 0 0 1-18.56 10.874c-.179.048-.36.097-.541.14l-.787.195-.173.79a32.672 32.672 0 0 0-.756 7 32.341 32.341 0 0 0 5.855 18.622 32.467 32.467 0 0 0 13.578 11.168c.467.206.938.4 1.418.587l.451.173.454-.165a34.781 34.781 0 0 0 1.824-.71 32.563 32.563 0 0 0 15.508-13.84h34.72a6.143 6.143 0 0 0 4-1.476 6.446 6.446 0 0 0 1.276-1.48c.6-.974.917-2.095.915-3.238V26.631a6.2 6.2 0 0 0-.905-3.232Zm-51.501.004c.107-.009.215-.012.327-.012h45.894c.112 0 .219.003.326.012h.486l-.078.07-22.716 20.098a1.451 1.451 0 0 1-1.92 0L37.198 23.474l-.079-.07h.475Zm-2.907 3.228c-.002-.42.08-.836.24-1.224l19.475 17.237-1.39 1.228c-.07-.479-.154-.954-.249-1.426a8.009 8.009 0 0 0-.086-.455l-.169-.797-.79-.195-.571-.146a39.998 39.998 0 0 1-16.46-8.935v-5.287ZM31.343 76.77A30.138 30.138 0 0 1 12.613 49c0-1.9.18-3.794.537-5.66a42.471 42.471 0 0 0 18.609-10.59 42.48 42.48 0 0 0 18.52 10.564c.326 1.787.49 3.6.49 5.417A30.004 30.004 0 0 1 31.344 76.77ZM50.589 61.88a32.38 32.38 0 0 0 2.763-14.358l3.277-2.903 3.283 2.903a1.451 1.451 0 0 0 1.92 0l3.282-2.903 19.421 17.179.091.083H50.589Zm36.459-3.237c.001.419-.08.833-.24 1.22l-19.46-17.217 19.466-17.225c.157.384.236.796.235 1.211l-.001 32.011Z"/></svg>