<svg xmlns="http://www.w3.org/2000/svg" width="100" height="100" fill="none"><g clip-path="url(#a)"><path fill="#3A76F0" d="m40.4 11.169.9 3.637a36.149 36.149 0 0 0-10.05 4.156l-1.925-3.213A39.853 39.853 0 0 1 40.4 11.17Zm19.2 0-.9 3.637c3.54.87 6.929 2.272 10.05 4.156l1.938-3.213A39.856 39.856 0 0 0 59.6 11.17ZM15.75 29.323a39.846 39.846 0 0 0-4.581 11.075l3.637.9a36.145 36.145 0 0 1 4.156-10.05l-3.212-1.925Zm-2 20.674a36.191 36.191 0 0 1 .406-5.431l-3.706-.562c-.6 3.973-.6 8.013 0 11.986l3.706-.562a36.19 36.19 0 0 1-.406-5.431Zm56.925 34.247-1.925-3.212a36.15 36.15 0 0 1-10.038 4.156l.9 3.637a39.848 39.848 0 0 0 11.063-4.58ZM86.25 49.997a36.19 36.19 0 0 1-.406 5.43l3.706.563c.6-3.973.6-8.013 0-11.986l-3.706.562c.271 1.797.407 3.613.406 5.43Zm2.581 9.6-3.637-.9a36.145 36.145 0 0 1-4.157 10.048l3.213 1.938a39.844 39.844 0 0 0 4.581-11.087Zm-33.4 26.247c-3.6.542-7.262.542-10.862 0l-.563 3.706c3.974.6 8.014.6 11.988 0l-.563-3.706Zm23.75-14.343a36.383 36.383 0 0 1-7.681 7.675l2.225 3.018a40.06 40.06 0 0 0 8.475-8.449l-3.019-2.244ZM71.5 20.818a36.381 36.381 0 0 1 7.681 7.68l3.019-2.25a40.061 40.061 0 0 0-8.45-8.449l-2.25 3.019Zm-50.681 7.68a36.381 36.381 0 0 1 7.681-7.68l-2.25-3.019a40.061 40.061 0 0 0-8.45 8.45l3.019 2.25Zm63.431.825-3.213 1.925a36.145 36.145 0 0 1 4.157 10.037l3.637-.9a39.844 39.844 0 0 0-4.581-11.061ZM44.569 14.156c3.6-.542 7.262-.542 10.862 0l.563-3.706a40.15 40.15 0 0 0-11.988 0l.563 3.706ZM22.744 83.188 15 84.994l1.806-7.743-3.65-.856-1.806 7.743a3.75 3.75 0 0 0 4.506 4.506l7.738-1.775-.85-3.68Zm-8.806-10.137 3.65.85 1.25-5.368a36.088 36.088 0 0 1-4.032-9.837l-3.637.9a39.699 39.699 0 0 0 3.687 9.506l-.918 3.95Zm17.5 8.125-5.37 1.25.85 3.65 3.95-.92a39.705 39.705 0 0 0 9.507 3.688l.9-3.637a36.092 36.092 0 0 1-9.813-4.056l-.024.025ZM50 17.499a32.495 32.495 0 0 0-27.5 49.79l-3.125 13.33 13.331-3.124a32.502 32.502 0 0 0 37.573-2.082 32.496 32.496 0 0 0 10.422-36.155A32.5 32.5 0 0 0 50 17.499Z"/></g><defs><clipPath id="a"><path fill="#fff" d="M10 10h80v80H10z"/></clipPath></defs></svg>