<svg xmlns="http://www.w3.org/2000/svg" width="100" height="100" fill="none"><path fill="#EE5128" d="M50 90c22.091 0 40-17.909 40-40S72.091 10 50 10 10 27.909 10 50s17.909 40 40 40Z"/><mask id="a" width="80" height="80" x="10" y="10" maskUnits="userSpaceOnUse" style="mask-type:luminance"><path fill="#fff" d="M50 90c22.091 0 40-17.909 40-40S72.091 10 50 10 10 27.909 10 50s17.909 40 40 40Z"/></mask><g fill-rule="evenodd" clip-rule="evenodd" mask="url(#a)"><path fill="#FAB314" d="M5.22 94.902 94.904 5.221l37.135 37.135-89.682 89.682L5.221 94.902Z"/><path fill="#7CBB41" d="M50 5.221v38.146L50.123 50 84.36 15.765 64.859 5.22H50Z"/><path fill="#279AD5" d="M100.868 50H50.123L86.69 13.434 100.868 50Z"/></g><path fill="#000" d="M50 85.271c19.48 0 35.271-15.791 35.271-35.271S69.48 14.729 50 14.729 14.729 30.52 14.729 50 30.52 85.271 50 85.271Z"/><mask id="b" width="72" height="72" x="14" y="14" maskUnits="userSpaceOnUse" style="mask-type:luminance"><path fill="#fff" d="M50 85.271c19.48 0 35.271-15.791 35.271-35.271S69.48 14.729 50 14.729 14.729 30.52 14.729 50 30.52 85.271 50 85.271Z"/></mask><g mask="url(#b)"><path fill="#fff" d="M50 181.608c33.69 0 61.001-27.311 61.001-61 0-33.69-27.311-61-61-61-33.69 0-61.001 27.31-61.001 61 0 33.689 27.31 61 61 61Z"/><path fill="#FAB314" fill-rule="evenodd" d="M50.44 74.073a.937.937 0 0 1-.88 0c-1.235-.684-4.833-2.913-7.757-7.08-2.179-3.105-3.168-6.617-3.569-8.477a1.29 1.29 0 0 1 1.016-1.536c1.4-.275 3.728-.84 5.69-1.832 2.013-1.018 3.58-2.375 4.409-3.175a.938.938 0 0 1 1.303 0c.828.8 2.395 2.157 4.407 3.175 1.963.993 4.29 1.557 5.692 1.832a1.292 1.292 0 0 1 1.015 1.536c-.401 1.86-1.39 5.372-3.57 8.477-2.922 4.167-6.52 6.396-7.755 7.08Z" clip-rule="evenodd"/><path fill="#fff" fill-rule="evenodd" d="M49.182 31.037a.938.938 0 0 0 1.636 0c1.55-2.774 3.997-4.86 7.065-5.682 6.712-1.799 13.874 3.131 15.983 11.002 2.109 7.87-1.628 15.721-8.34 17.52-5.694 1.525-11.71-1.79-14.693-7.634a.937.937 0 0 0-1.666 0c-2.982 5.844-8.999 9.16-14.692 7.634-6.712-1.799-10.45-9.65-8.34-17.52 2.109-7.87 9.27-12.8 15.982-11.002 3.068.822 5.515 2.908 7.065 5.682Z" clip-rule="evenodd"/><path fill="#000" d="M42.844 46.191a3.903 3.903 0 1 0 0-7.805 3.903 3.903 0 0 0 0 7.805ZM57.156 46.191a3.903 3.903 0 1 0 0-7.805 3.903 3.903 0 0 0 0 7.805Z"/></g></svg>