<svg xmlns="http://www.w3.org/2000/svg" width="100" height="100" fill="none"><path fill="#192E45" fill-rule="evenodd" d="M10 50c0 22.095 17.936 40 40 40s40-17.905 40-40-17.905-40-40-40-40 17.905-40 40Z" clip-rule="evenodd"/><path fill="#D2943B" fill-rule="evenodd" d="m17.588 40.667-2.254 4.571 3.047-4.254-.19 6.127.857-4.603c2.286 4.35 7.333 11.047 14.413 16.032a10.81 10.81 0 0 1 1.46 1.301s6.762 3.429 17.175-4.508c.095-.063.222-.127.317-.19l.159.095 2.285 1.524c-.793-.222-2.317-.603-2.317-.603-5.016 5.778-13.175 6.73-17.556 3.81-.19-.128-1.27.317-1.46.952-.127.349 0 .73.159 1.016.889 1.65 2.222 1.492 1.587 3.428-.444 1.048-1.08 2.064-1.778 3.016-1.46 1.968-3.746 3.714-3.523 4.762C40.317 85.905 63.65 84.127 72.54 72.73c-.127-1.65-2.73-2.444-4.54-6.476.508.159 1.27.38 1.27.35 0-.033-2.159-3.525-2.254-3.874l1.397.095s-1.841-2.285-1.905-2.508l1.873-.254s-2.349-2.698-2.38-2.92l2.38.38-2.603-3.142h1.238l-1.46-2.127-11.841-4.667c-4.54-2.825-8.572-6.286-11.62-8.952l-6.127-2.984c-5.873-.445-11.365-.286-14.73.38l2.16-3.682-3.144 3.746c-.19-.063-.412-.127-.412-.127l.222-4.762-1.048 4.445-1.428 5.016Z" clip-rule="evenodd"/><path fill="#FFCD86" fill-rule="evenodd" d="M19.016 35.65c-1.556-.73-3.365.318-3.683 1.747-.38 1.365.572 3.047 2.254 3.27 1.587-.985 2.953-3.524 1.429-5.016Z" clip-rule="evenodd"/><path fill="#FFD524" fill-rule="evenodd" d="M42.127 32.19c-.476-1.301-.35-2.984.317-4.571.953-2.19 2.762-3.65 4.477-3.65.349 0 .666.063.984.19a11.371 11.371 0 0 1 3.396-2.127c6.985-2.794 17.239 2.19 19.874 9.047 1.27 3.334.888 6.953-.19 10.286-.89 2.73-4.128 6.667-2.922 9.619-.476-.127-10.412-3.492-13.27-5.016-4.476-2.794-8.476-6.222-11.492-8.857l-.095-.095-10.158-4.826a3.457 3.457 0 0 1-.35-.19c1.397.063 6.953.73 9.429.19Z" clip-rule="evenodd"/><path fill="#fff" d="M48.479 30.205c.955-2.185.675-4.417-.626-4.986-1.301-.57-3.13.74-4.086 2.925-.956 2.185-.675 4.417.626 4.986 1.301.57 3.13-.74 4.086-2.925Z"/><path fill="#192E45" d="M48.127 24.635c-1.683-.73-3.937.698-5.048 3.206-1.11 2.508-.603 5.111 1.08 5.873 1.682.73 3.936-.698 5.047-3.206 1.111-2.508.604-5.111-1.079-5.873Zm.159 5.492c-.89 2-2.572 3.206-3.746 2.698-1.207-.54-1.46-2.571-.572-4.603.89-2 2.572-3.206 3.778-2.698 1.175.54 1.429 2.603.54 4.603Z"/></svg>