<svg xmlns="http://www.w3.org/2000/svg" width="100" height="100" fill="none"><path stroke="#657802" stroke-width="2" d="M48.316 63.66a.188.188 0 0 1 .188.224l-.5 2.692a.19.19 0 0 0 .104.206.187.187 0 0 0 .08.018h9.016a.187.187 0 0 0 .184-.156l.476-2.884a.188.188 0 0 1 .188-.16l7.02.088a.188.188 0 0 0 .188-.156l5.288-30.012a.188.188 0 0 0-.184-.22H32.028a.188.188 0 0 0-.184.156L26.576 63.46a.187.187 0 0 0 .184.22l21.556-.02Z"/><path stroke="gray" stroke-width="2" d="M45.192 40.732a.16.16 0 0 1 .16-.132h1.772a.16.16 0 0 1 .16.188L43.7 61.412a.16.16 0 0 0 .16.188h4.844a.16.16 0 0 0 .16-.132l4.564-25.88a.16.16 0 0 0-.16-.188H33.72a.16.16 0 0 0-.16.132l-4.552 25.88a.16.16 0 0 0 .16.188h4.9a.16.16 0 0 0 .16-.132l3.62-20.736a.16.16 0 0 1 .16-.132h1.784a.16.16 0 0 1 .16.188l-3.604 20.624a.16.16 0 0 0 .16.188h4.9a.16.16 0 0 0 .16-.132l3.624-20.736Zm11.012 20.86a.152.152 0 0 1 .152-.124l7.056.132a.152.152 0 0 0 .156-.124l4.564-25.896a.152.152 0 0 0-.148-.18H55.736a.152.152 0 0 0-.152.124L50.488 64.52a.15.15 0 0 0 .032.124.153.153 0 0 0 .116.056h4.92a.152.152 0 0 0 .148-.128l.5-2.98Z"/><path stroke="gray" stroke-width="2" d="M60.008 40.6a.136.136 0 0 0-.136.112l-2.724 15.432a.137.137 0 0 0 .078.148.136.136 0 0 0 .058.012l1.828-.008a.136.136 0 0 0 .132-.112l2.708-15.424a.136.136 0 0 0-.132-.16h-1.812Z"/><path fill="#C9F003" d="M10 10h80v80H10V10Zm38.316 53.66a.187.187 0 0 1 .185.141.188.188 0 0 1 .003.083l-.5 2.692a.188.188 0 0 0 .184.224h9.016a.188.188 0 0 0 .184-.156l.476-2.884a.188.188 0 0 1 .188-.16l7.02.088a.188.188 0 0 0 .188-.156l5.288-30.012a.188.188 0 0 0-.184-.22H32.028a.188.188 0 0 0-.184.156L26.576 63.46a.188.188 0 0 0 .184.22l21.556-.02Z"/><path fill="#000" d="m48.316 63.66-21.556.02a.187.187 0 0 1-.184-.22l5.268-30.004a.188.188 0 0 1 .184-.156h38.336a.189.189 0 0 1 .184.22L65.26 63.532a.188.188 0 0 1-.188.156l-7.02-.088a.188.188 0 0 0-.188.16l-.476 2.884a.189.189 0 0 1-.184.156h-9.016a.187.187 0 0 1-.182-.142.19.19 0 0 1-.002-.082l.5-2.692a.188.188 0 0 0-.188-.224Zm-3.124-22.928a.16.16 0 0 1 .16-.132h1.772a.16.16 0 0 1 .16.188L43.7 61.412a.16.16 0 0 0 .16.188h4.844a.16.16 0 0 0 .16-.132l4.564-25.88a.16.16 0 0 0-.16-.188H33.72a.16.16 0 0 0-.16.132l-4.552 25.88a.16.16 0 0 0 .16.188h4.9a.16.16 0 0 0 .16-.132l3.62-20.736a.16.16 0 0 1 .16-.132h1.784a.16.16 0 0 1 .16.188l-3.604 20.624a.16.16 0 0 0 .16.188h4.9a.16.16 0 0 0 .16-.132l3.624-20.736Zm11.012 20.86a.152.152 0 0 1 .152-.124l7.056.132a.151.151 0 0 0 .156-.124l4.564-25.896a.152.152 0 0 0-.148-.18H55.736a.153.153 0 0 0-.152.124L50.488 64.52a.15.15 0 0 0 .084.165c.02.01.042.015.064.015h4.92a.152.152 0 0 0 .148-.128l.5-2.98Z"/><path fill="#fff" d="m45.192 40.732-3.624 20.736a.16.16 0 0 1-.16.132h-4.9a.16.16 0 0 1-.16-.188l3.604-20.624a.16.16 0 0 0-.16-.188h-1.784a.16.16 0 0 0-.16.132l-3.62 20.736a.16.16 0 0 1-.16.132h-4.9a.16.16 0 0 1-.16-.188l4.552-25.88a.16.16 0 0 1 .16-.132h19.548a.16.16 0 0 1 .16.188l-4.564 25.88a.16.16 0 0 1-.16.132H43.86a.16.16 0 0 1-.16-.188l3.584-20.624a.16.16 0 0 0-.16-.188h-1.772a.16.16 0 0 0-.16.132Zm11.012 20.86-.5 2.98a.152.152 0 0 1-.148.128h-4.92a.154.154 0 0 1-.116-.056.152.152 0 0 1-.032-.124l5.096-28.996a.152.152 0 0 1 .152-.124h12.248a.151.151 0 0 1 .146.114.152.152 0 0 1 .002.066l-4.564 25.896a.152.152 0 0 1-.156.124l-7.056-.132a.152.152 0 0 0-.152.124ZM60.008 40.6a.136.136 0 0 0-.136.112l-2.724 15.432a.136.136 0 0 0 .136.16l1.828-.008a.135.135 0 0 0 .132-.112l2.708-15.424a.135.135 0 0 0-.132-.16h-1.812Z"/><path fill="#000" d="M60.008 40.6h1.812a.135.135 0 0 1 .132.16l-2.708 15.424a.136.136 0 0 1-.132.112l-1.828.008a.136.136 0 0 1-.136-.16l2.724-15.432a.136.136 0 0 1 .136-.112Z"/></svg>