<svg xmlns="http://www.w3.org/2000/svg" width="100" height="100" fill="none"><g clip-path="url(#a)"><path fill="#1071D3" d="M70.53 90H29.47C18.763 90 10 81.238 10 70.53V29.47C10 18.763 18.762 10 29.47 10h41.06C81.237 10 90 18.762 90 29.47v41.06C90 81.237 81.238 90 70.53 90Z"/><path fill="#fff" d="M71.9 20.7H50.159a.371.371 0 0 0-.371.37v6.905c0 .232.188.42.42.42h2.98a2.3 2.3 0 0 1 2.289 2.106v32.665c.007.263-.004.522-.03.777a5.477 5.477 0 0 1-.078.553c-.015.082-.037.163-.057.244-.027.109-.048.219-.082.325a4.995 4.995 0 0 1-.937 1.726c-.015.018-.035.035-.05.053a5.03 5.03 0 0 1-.422.439c-.154.14-.316.27-.487.39-1.217.862-2.854 1.241-4.683 1.066-2.332-.22-4.646-1.277-6.516-2.978-1.87-1.702-3.032-3.807-3.273-5.929-.216-1.898.352-3.568 1.6-4.704a.066.066 0 0 0 .01-.007c.047-.043.1-.081.15-.123.893-.748 2.057-1.202 3.386-1.327l.044-.005c.14-.012.282-.018.426-.023.075-.002.15-.008.225-.008.026 0 .05-.003.075-.003.045 0 .092.006.138.006.21.003.42.012.635.03.027.003.053.002.081.004l.06.009c1.218.122 2.425.486 3.57 1.037a.196.196 0 0 1 .086.028c.35.192.416-.014.427-.151V44.203a.64.64 0 0 0-.498-.625c-6.168-1.357-12.22.056-16.49 3.943-3.73 3.394-5.535 8.29-4.95 13.434.521 4.582 2.873 8.984 6.623 12.396 3.654 3.325 8.307 5.404 13.107 5.856.662.062 1.326.093 1.975.093 4.584 0 8.837-1.572 11.977-4.427 2.974-2.708 4.755-6.427 5.017-10.472l.024-26.53h.003v-7.217a2.307 2.307 0 0 1 2.307-2.259h2.98a.42.42 0 0 0 .421-.42V21.07a.371.371 0 0 0-.371-.372Z"/></g><defs><clipPath id="a"><path fill="#fff" d="M10 10h80v80H10z"/></clipPath></defs></svg>