<svg xmlns="http://www.w3.org/2000/svg" width="100" height="100" fill="none"><path fill="#fff" d="M35 35h30v30H35z"/><path fill="red" d="M88.327 30.62a10.054 10.054 0 0 0-7.074-7.12C75.017 21.817 50 21.817 50 21.817s-25.017 0-31.257 1.683a10.056 10.056 0 0 0-7.07 7.12C10 36.9 10 50 10 50s0 13.1 1.673 19.38a10.054 10.054 0 0 0 7.074 7.12C24.983 78.183 50 78.183 50 78.183s25.017 0 31.257-1.683a10.05 10.05 0 0 0 7.073-7.12C90 63.1 90 50 90 50s0-13.1-1.673-19.38Zm-46.51 31.273V38.107L62.727 50l-20.91 11.893Z"/></svg>